{"asset":{"version":"2.0","generator":"Blockbench 5.1.4 glTF exporter"},"scenes":[{"nodes":[1,3,5,14,16],"name":"blockbench_export"}],"scene":0,"nodes":[{"translation":[0.25,0.6875,0],"name":"hole","mesh":0},{"name":"hole","children":[0]},{"translation":[0,2.0625,0],"name":"plane","mesh":1},{"name":"cover","children":[2]},{"rotation":[-4.329780281177466e-17,-0.7071067811865476,0.7071067811865475,4.329780281177467e-17],"translation":[-0.013642500000000002,0.11939187499999981,0.253911875],"name":"cylinder","mesh":2},{"translation":[1.125,2.5625,0],"name":"janazah","children":[4]},{"rotation":[0,0,0.40274668985873724,0.9153114791194471],"translation":[0.40625,-1.7968749999999996,0.4125],"name":"mesh","mesh":3},{"rotation":[0,0,0.40274668985873724,0.9153114791194471],"translation":[0.40625,-1.7968749999999996,0.7718750000000001],"name":"mesh","mesh":4},{"rotation":[0,0,0.40274668985873724,0.9153114791194471],"translation":[0.40625,-1.7968749999999996,1.15],"name":"mesh","mesh":5},{"rotation":[0,0,0.40274668985873724,0.9153114791194471],"translation":[0.40625,-1.7968749999999996,1.525],"name":"mesh","mesh":6},{"rotation":[0,0,0.40274668985873724,0.9153114791194471],"translation":[0.40625,-1.7968749999999996,-0.6781250000000001],"name":"mesh","mesh":7},{"rotation":[0,0,0.40274668985873724,0.9153114791194471],"translation":[0.40625,-1.7968749999999996,-0.31875000000000003],"name":"mesh","mesh":8},{"rotation":[0,0,0.40274668985873724,0.9153114791194471],"translation":[0.40625,-1.7968749999999996,0.04375000000000001],"name":"mesh","mesh":9},{"rotation":[0,0,0.40274668985873724,0.9153114791194471],"translation":[0.40625,-1.7968749999999996,-1.0375],"name":"mesh","mesh":10},{"translation":[-1.35625,4.428125,-0.2],"name":"planks","children":[6,7,8,9,10,11,12,13]},{"translation":[0,1.575,0],"name":"mesh","mesh":11},{"name":"tanah","children":[15]}],"bufferViews":[{"buffer":0,"byteOffset":0,"byteLength":10752,"target":34962,"byteStride":12},{"buffer":0,"byteOffset":10752,"byteLength":10752,"target":34962,"byteStride":12},{"buffer":0,"byteOffset":21504,"byteLength":7168,"target":34962,"byteStride":8},{"buffer":0,"byteOffset":28672,"byteLength":2688,"target":34963},{"buffer":0,"byteOffset":31360,"byteLength":9216,"target":34962,"byteStride":12},{"buffer":0,"byteOffset":40576,"byteLength":9216,"target":34962,"byteStride":12},{"buffer":0,"byteOffset":49792,"byteLength":6144,"target":34962,"byteStride":8},{"buffer":0,"byteOffset":55936,"byteLength":2304,"target":34963},{"buffer":0,"byteOffset":58240,"byteLength":9816,"target":34962,"byteStride":12},{"buffer":0,"byteOffset":68056,"byteLength":9816,"target":34962,"byteStride":12},{"buffer":0,"byteOffset":77872,"byteLength":6544,"target":34962,"byteStride":8},{"buffer":0,"byteOffset":84416,"byteLength":2388,"target":34963},{"buffer":0,"byteOffset":86804,"byteLength":4512,"target":34962,"byteStride":12},{"buffer":0,"byteOffset":91316,"byteLength":4512,"target":34962,"byteStride":12},{"buffer":0,"byteOffset":95828,"byteLength":3008,"target":34962,"byteStride":8},{"buffer":0,"byteOffset":98836,"byteLength":1128,"target":34963},{"buffer":0,"byteOffset":99964,"byteLength":4512,"target":34962,"byteStride":12},{"buffer":0,"byteOffset":104476,"byteLength":4512,"target":34962,"byteStride":12},{"buffer":0,"byteOffset":108988,"byteLength":3008,"target":34962,"byteStride":8},{"buffer":0,"byteOffset":111996,"byteLength":1128,"target":34963},{"buffer":0,"byteOffset":113124,"byteLength":4512,"target":34962,"byteStride":12},{"buffer":0,"byteOffset":117636,"byteLength":4512,"target":34962,"byteStride":12},{"buffer":0,"byteOffset":122148,"byteLength":3008,"target":34962,"byteStride":8},{"buffer":0,"byteOffset":125156,"byteLength":1128,"target":34963},{"buffer":0,"byteOffset":126284,"byteLength":4512,"target":34962,"byteStride":12},{"buffer":0,"byteOffset":130796,"byteLength":4512,"target":34962,"byteStride":12},{"buffer":0,"byteOffset":135308,"byteLength":3008,"target":34962,"byteStride":8},{"buffer":0,"byteOffset":138316,"byteLength":1128,"target":34963},{"buffer":0,"byteOffset":139444,"byteLength":4512,"target":34962,"byteStride":12},{"buffer":0,"byteOffset":143956,"byteLength":4512,"target":34962,"byteStride":12},{"buffer":0,"byteOffset":148468,"byteLength":3008,"target":34962,"byteStride":8},{"buffer":0,"byteOffset":151476,"byteLength":1128,"target":34963},{"buffer":0,"byteOffset":152604,"byteLength":4512,"target":34962,"byteStride":12},{"buffer":0,"byteOffset":157116,"byteLength":4512,"target":34962,"byteStride":12},{"buffer":0,"byteOffset":161628,"byteLength":3008,"target":34962,"byteStride":8},{"buffer":0,"byteOffset":164636,"byteLength":1128,"target":34963},{"buffer":0,"byteOffset":165764,"byteLength":4512,"target":34962,"byteStride":12},{"buffer":0,"byteOffset":170276,"byteLength":4512,"target":34962,"byteStride":12},{"buffer":0,"byteOffset":174788,"byteLength":3008,"target":34962,"byteStride":8},{"buffer":0,"byteOffset":177796,"byteLength":1128,"target":34963},{"buffer":0,"byteOffset":178924,"byteLength":4512,"target":34962,"byteStride":12},{"buffer":0,"byteOffset":183436,"byteLength":4512,"target":34962,"byteStride":12},{"buffer":0,"byteOffset":187948,"byteLength":3008,"target":34962,"byteStride":8},{"buffer":0,"byteOffset":190956,"byteLength":1128,"target":34963},{"buffer":0,"byteOffset":192084,"byteLength":13512,"target":34962,"byteStride":12},{"buffer":0,"byteOffset":205596,"byteLength":13512,"target":34962,"byteStride":12},{"buffer":0,"byteOffset":219108,"byteLength":9008,"target":34962,"byteStride":8},{"buffer":0,"byteOffset":228116,"byteLength":3360,"target":34963},{"buffer":0,"byteOffset":231476,"byteLength":12},{"buffer":0,"byteOffset":231488,"byteLength":48},{"buffer":0,"byteOffset":231536,"byteLength":8},{"buffer":0,"byteOffset":231544,"byteLength":24},{"buffer":0,"byteOffset":231568,"byteLength":12},{"buffer":0,"byteOffset":231580,"byteLength":36}],"buffers":[{"byteLength":231616,"uri":"data:application/octet-stream;base64,"}],"accessors":[{"bufferView":0,"componentType":5126,"count":896,"max":[0.8125,1.375,1.5437500476837158],"min":[-0.8374999761581421,-0.625,-1.556249976158142],"type":"VEC3"},{"bufferView":1,"componentType":5126,"count":896,"max":[1,0.94304358959198,0.9998332858085632],"min":[-1,-1,-0.9996323585510254],"type":"VEC3"},{"bufferView":2,"componentType":5126,"count":896,"max":[0.92578125,0.8125],"min":[0,0],"type":"VEC2"},{"bufferView":3,"componentType":5123,"count":1344,"max":[895],"min":[0],"type":"SCALAR"},{"bufferView":4,"componentType":5126,"count":768,"max":[2.9375,0.16875000298023224,3.625],"min":[-2.75,0,-3.3125],"type":"VEC3"},{"bufferView":5,"componentType":5126,"count":768,"max":[0.43282827734947205,1,0.4121190011501312],"min":[-0.3711801767349243,0.887641429901123,-0.29324695467948914],"type":"VEC3"},{"bufferView":6,"componentType":5126,"count":768,"max":[0.525020956993103,0.5121947526931763],"min":[0,0],"type":"VEC2"},{"bufferView":7,"componentType":5123,"count":1152,"max":[767],"min":[0],"type":"SCALAR"},{"bufferView":8,"componentType":5126,"count":818,"max":[0.3748137354850769,1.5460880994796753,0.18526874482631683],"min":[-0.3751862645149231,-0.9289118647575378,-0.2117912471294403],"type":"VEC3"},{"bufferView":9,"componentType":5126,"count":818,"max":[0.9636296629905701,1,0.9987137913703918],"min":[-0.9647387266159058,-1,-0.9998266100883484],"type":"VEC3"},{"bufferView":10,"componentType":5126,"count":818,"max":[0.671875,0.7034620046615601],"min":[0,0],"type":"VEC2"},{"bufferView":11,"componentType":5123,"count":1194,"max":[817],"min":[0],"type":"SCALAR"},{"bufferView":12,"componentType":5126,"count":376,"max":[0.34375,0.2847200036048889,0.16875000298023224],"min":[-0.34375,0.21875,-0.17499999701976776],"type":"VEC3"},{"bufferView":13,"componentType":5126,"count":376,"max":[0.7071067690849304,1,0.7513502836227417],"min":[-0.7071067690849304,-1,-0.7587988972663879],"type":"VEC3"},{"bufferView":14,"componentType":5126,"count":376,"max":[0.71875,0.484375],"min":[0,0],"type":"VEC2"},{"bufferView":15,"componentType":5123,"count":564,"max":[375],"min":[0],"type":"SCALAR"},{"bufferView":16,"componentType":5126,"count":376,"max":[0.34375,0.2847200036048889,0.16875000298023224],"min":[-0.34375,0.21875,-0.17499999701976776],"type":"VEC3"},{"bufferView":17,"componentType":5126,"count":376,"max":[0.7071067690849304,1,0.7513502836227417],"min":[-0.7071067690849304,-1,-0.7587988972663879],"type":"VEC3"},{"bufferView":18,"componentType":5126,"count":376,"max":[0.71875,0.484375],"min":[0,0],"type":"VEC2"},{"bufferView":19,"componentType":5123,"count":564,"max":[375],"min":[0],"type":"SCALAR"},{"bufferView":20,"componentType":5126,"count":376,"max":[0.34375,0.2847200036048889,0.16875000298023224],"min":[-0.34375,0.21875,-0.17499999701976776],"type":"VEC3"},{"bufferView":21,"componentType":5126,"count":376,"max":[0.7071067690849304,1,0.7513502836227417],"min":[-0.7071067690849304,-1,-0.7587988972663879],"type":"VEC3"},{"bufferView":22,"componentType":5126,"count":376,"max":[0.71875,0.484375],"min":[0,0],"type":"VEC2"},{"bufferView":23,"componentType":5123,"count":564,"max":[375],"min":[0],"type":"SCALAR"},{"bufferView":24,"componentType":5126,"count":376,"max":[0.34375,0.2847200036048889,0.16875000298023224],"min":[-0.34375,0.21875,-0.17499999701976776],"type":"VEC3"},{"bufferView":25,"componentType":5126,"count":376,"max":[0.7071067690849304,1,0.7513502836227417],"min":[-0.7071067690849304,-1,-0.7587988972663879],"type":"VEC3"},{"bufferView":26,"componentType":5126,"count":376,"max":[0.71875,0.484375],"min":[0,0],"type":"VEC2"},{"bufferView":27,"componentType":5123,"count":564,"max":[375],"min":[0],"type":"SCALAR"},{"bufferView":28,"componentType":5126,"count":376,"max":[0.34375,0.2847200036048889,0.16875000298023224],"min":[-0.34375,0.21875,-0.17499999701976776],"type":"VEC3"},{"bufferView":29,"componentType":5126,"count":376,"max":[0.7071067690849304,1,0.7513502836227417],"min":[-0.7071067690849304,-1,-0.7587988972663879],"type":"VEC3"},{"bufferView":30,"componentType":5126,"count":376,"max":[0.71875,0.484375],"min":[0,0],"type":"VEC2"},{"bufferView":31,"componentType":5123,"count":564,"max":[375],"min":[0],"type":"SCALAR"},{"bufferView":32,"componentType":5126,"count":376,"max":[0.34375,0.2847200036048889,0.16875000298023224],"min":[-0.34375,0.21875,-0.17499999701976776],"type":"VEC3"},{"bufferView":33,"componentType":5126,"count":376,"max":[0.7071067690849304,1,0.7513502836227417],"min":[-0.7071067690849304,-1,-0.7587988972663879],"type":"VEC3"},{"bufferView":34,"componentType":5126,"count":376,"max":[0.71875,0.484375],"min":[0,0],"type":"VEC2"},{"bufferView":35,"componentType":5123,"count":564,"max":[375],"min":[0],"type":"SCALAR"},{"bufferView":36,"componentType":5126,"count":376,"max":[0.34375,0.2847200036048889,0.16875000298023224],"min":[-0.34375,0.21875,-0.17499999701976776],"type":"VEC3"},{"bufferView":37,"componentType":5126,"count":376,"max":[0.7071067690849304,1,0.7513502836227417],"min":[-0.7071067690849304,-1,-0.7587988972663879],"type":"VEC3"},{"bufferView":38,"componentType":5126,"count":376,"max":[0.71875,0.484375],"min":[0,0],"type":"VEC2"},{"bufferView":39,"componentType":5123,"count":564,"max":[375],"min":[0],"type":"SCALAR"},{"bufferView":40,"componentType":5126,"count":376,"max":[0.34375,0.2847200036048889,0.16875000298023224],"min":[-0.34375,0.21875,-0.17499999701976776],"type":"VEC3"},{"bufferView":41,"componentType":5126,"count":376,"max":[0.7071067690849304,1,0.7513502836227417],"min":[-0.7071067690849304,-1,-0.7587988972663879],"type":"VEC3"},{"bufferView":42,"componentType":5126,"count":376,"max":[0.71875,0.484375],"min":[0,0],"type":"VEC2"},{"bufferView":43,"componentType":5123,"count":564,"max":[375],"min":[0],"type":"SCALAR"},{"bufferView":44,"componentType":5126,"count":1126,"max":[0.6312500238418579,0.824999988079071,1.7000000476837158],"min":[-0.612500011920929,0.3187499940395355,-1.7000000476837158],"type":"VEC3"},{"bufferView":45,"componentType":5126,"count":1126,"max":[0.9958187937736511,0.9988580346107483,0.8257584571838379],"min":[-0.9932830333709717,-1,-0.8910234570503235],"type":"VEC3"},{"bufferView":46,"componentType":5126,"count":1126,"max":[0.8004536628723145,0.47265625],"min":[0,0],"type":"VEC2"},{"bufferView":47,"componentType":5123,"count":1680,"max":[1125],"min":[0],"type":"SCALAR"},{"bufferView":48,"componentType":5126,"count":3,"max":[1.8333300352096558],"min":[1],"type":"SCALAR"},{"bufferView":49,"componentType":5126,"count":3,"max":[0,0,0,1],"min":[0,0,-0.5,0.8660253882408142],"type":"VEC4"},{"bufferView":50,"componentType":5126,"count":2,"max":[1],"min":[0],"type":"SCALAR"},{"bufferView":51,"componentType":5126,"count":2,"max":[1.125,3.6875,0],"min":[1.125,2.5625,0],"type":"VEC3"},{"bufferView":52,"componentType":5126,"count":3,"max":[1.9166699647903442],"min":[0],"type":"SCALAR"},{"bufferView":53,"componentType":5126,"count":3,"max":[-0.04374999925494194,4.428124904632568,-0.20000000298023224],"min":[-1.3562500476837158,4.428124904632568,-0.20000000298023224],"type":"VEC3"}],"materials":[{"pbrMetallicRoughness":{"metallicFactor":0,"roughnessFactor":1,"baseColorTexture":{"index":0}},"alphaMode":"MASK","alphaCutoff":0.05,"doubleSided":true},{"pbrMetallicRoughness":{"metallicFactor":0,"roughnessFactor":1,"baseColorTexture":{"index":1}},"alphaMode":"MASK","alphaCutoff":0.05,"doubleSided":true},{"pbrMetallicRoughness":{"metallicFactor":0,"roughnessFactor":1,"baseColorTexture":{"index":2}},"alphaMode":"MASK","alphaCutoff":0.05,"doubleSided":true},{"pbrMetallicRoughness":{"metallicFactor":0,"roughnessFactor":1,"baseColorTexture":{"index":3}},"alphaMode":"MASK","alphaCutoff":0.05,"doubleSided":true},{"pbrMetallicRoughness":{"metallicFactor":0,"roughnessFactor":1,"baseColorTexture":{"index":4}},"alphaMode":"MASK","alphaCutoff":0.05,"doubleSided":true}],"textures":[{"sampler":0,"source":0,"name":"hole"},{"sampler":1,"source":1,"name":"ground"},{"sampler":2,"source":2,"name":"db"},{"sampler":3,"source":3,"name":"plank.png"},{"sampler":4,"source":4,"name":"pile"}],"samplers":[{"magFilter":9728,"minFilter":9728,"wrapS":33071,"wrapT":33071},{"magFilter":9728,"minFilter":9728,"wrapS":33071,"wrapT":33071},{"magFilter":9728,"minFilter":9728,"wrapS":33071,"wrapT":33071},{"magFilter":9728,"minFilter":9728,"wrapS":33071,"wrapT":33071},{"magFilter":9728,"minFilter":9728,"wrapS":33071,"wrapT":33071}],"images":[{"mimeType":"image/png","uri":"data:image/png;base64,"},{"mimeType":"image/png","uri":"data:image/png;base64,"},{"mimeType":"image/png","uri":"data:image/png;base64,"},{"mimeType":"image/png","uri":"data:image/png;base64,"},{"mimeType":"image/png","uri":"data:image/png;base64,"}],"meshes":[{"primitives":[{"mode":4,"attributes":{"POSITION":0,"NORMAL":1,"TEXCOORD_0":2},"indices":3,"material":0}]},{"primitives":[{"mode":4,"attributes":{"POSITION":4,"NORMAL":5,"TEXCOORD_0":6},"indices":7,"material":1}]},{"primitives":[{"mode":4,"attributes":{"POSITION":8,"NORMAL":9,"TEXCOORD_0":10},"indices":11,"material":2}]},{"primitives":[{"mode":4,"attributes":{"POSITION":12,"NORMAL":13,"TEXCOORD_0":14},"indices":15,"material":3}]},{"primitives":[{"mode":4,"attributes":{"POSITION":16,"NORMAL":17,"TEXCOORD_0":18},"indices":19,"material":3}]},{"primitives":[{"mode":4,"attributes":{"POSITION":20,"NORMAL":21,"TEXCOORD_0":22},"indices":23,"material":3}]},{"primitives":[{"mode":4,"attributes":{"POSITION":24,"NORMAL":25,"TEXCOORD_0":26},"indices":27,"material":3}]},{"primitives":[{"mode":4,"attributes":{"POSITION":28,"NORMAL":29,"TEXCOORD_0":30},"indices":31,"material":3}]},{"primitives":[{"mode":4,"attributes":{"POSITION":32,"NORMAL":33,"TEXCOORD_0":34},"indices":35,"material":3}]},{"primitives":[{"mode":4,"attributes":{"POSITION":36,"NORMAL":37,"TEXCOORD_0":38},"indices":39,"material":3}]},{"primitives":[{"mode":4,"attributes":{"POSITION":40,"NORMAL":41,"TEXCOORD_0":42},"indices":43,"material":3}]},{"primitives":[{"mode":4,"attributes":{"POSITION":44,"NORMAL":45,"TEXCOORD_0":46},"indices":47,"material":4}]}],"animations":[{"name":"step1","samplers":[{"input":48,"output":49,"interpolation":"LINEAR"},{"input":50,"output":51,"interpolation":"LINEAR"}],"channels":[{"sampler":0,"target":{"node":5,"path":"rotation"}},{"sampler":1,"target":{"node":5,"path":"translation"}}]},{"name":"step2","samplers":[{"input":52,"output":53,"interpolation":"LINEAR"}],"channels":[{"sampler":0,"target":{"node":14,"path":"translation"}}]}]}