{"asset":{"version":"2.0","generator":"Blockbench 5.1.4 glTF exporter"},"scenes":[{"nodes":[1,3],"name":"blockbench_export"}],"scene":0,"nodes":[{"translation":[0.25,0.6875,0],"name":"hole","mesh":0},{"name":"hole","children":[0]},{"translation":[0,2.0625,0],"name":"plane","mesh":1},{"name":"cover","children":[2]}],"bufferViews":[{"buffer":0,"byteOffset":0,"byteLength":1872,"target":34962,"byteStride":12},{"buffer":0,"byteOffset":1872,"byteLength":1872,"target":34962,"byteStride":12},{"buffer":0,"byteOffset":3744,"byteLength":1248,"target":34962,"byteStride":8},{"buffer":0,"byteOffset":4992,"byteLength":468,"target":34963},{"buffer":0,"byteOffset":5460,"byteLength":192,"target":34962,"byteStride":12},{"buffer":0,"byteOffset":5652,"byteLength":192,"target":34962,"byteStride":12},{"buffer":0,"byteOffset":5844,"byteLength":128,"target":34962,"byteStride":8},{"buffer":0,"byteOffset":5972,"byteLength":48,"target":34963}],"buffers":[{"byteLength":6020,"uri":"data:application/octet-stream;base64,"}],"accessors":[{"bufferView":0,"componentType":5126,"count":156,"max":[0.8125,1.375,1.5],"min":[-0.8125,-0.625,-1.5],"type":"VEC3"},{"bufferView":1,"componentType":5126,"count":156,"max":[1,0.800000011920929,1],"min":[-1,-1,-1],"type":"VEC3"},{"bufferView":2,"componentType":5126,"count":156,"max":[0.50390625,0.359375],"min":[0,0],"type":"VEC2"},{"bufferView":3,"componentType":5123,"count":234,"max":[155],"min":[0],"type":"SCALAR"},{"bufferView":4,"componentType":5126,"count":16,"max":[2.9375,0,3.625],"min":[-2.75,0,-3.3125],"type":"VEC3"},{"bufferView":5,"componentType":5126,"count":16,"max":[0,1,0],"min":[0,1,0],"type":"VEC3"},{"bufferView":6,"componentType":5126,"count":16,"max":[0.453125,0.578125],"min":[0,0],"type":"VEC2"},{"bufferView":7,"componentType":5123,"count":24,"max":[15],"min":[0],"type":"SCALAR"}],"materials":[{"pbrMetallicRoughness":{"metallicFactor":0,"roughnessFactor":1,"baseColorTexture":{"index":0}},"alphaMode":"MASK","alphaCutoff":0.05,"doubleSided":true},{"pbrMetallicRoughness":{"metallicFactor":0,"roughnessFactor":1,"baseColorTexture":{"index":1}},"alphaMode":"MASK","alphaCutoff":0.05,"doubleSided":true}],"textures":[{"sampler":0,"source":0,"name":"hole"},{"sampler":1,"source":1,"name":"ground"}],"samplers":[{"magFilter":9728,"minFilter":9728,"wrapS":33071,"wrapT":33071},{"magFilter":9728,"minFilter":9728,"wrapS":33071,"wrapT":33071}],"images":[{"mimeType":"image/png","uri":"data:image/png;base64,"},{"mimeType":"image/png","uri":"data:image/png;base64,"}],"meshes":[{"primitives":[{"mode":4,"attributes":{"POSITION":0,"NORMAL":1,"TEXCOORD_0":2},"indices":3,"material":0}]},{"primitives":[{"mode":4,"attributes":{"POSITION":4,"NORMAL":5,"TEXCOORD_0":6},"indices":7,"material":1}]}]}