{"asset":{"version":"2.0","generator":"Blockbench 5.1.4 glTF exporter"},"scenes":[{"nodes":[2],"name":"blockbench_export"}],"scene":0,"nodes":[{"translation":[0,0.6875,0],"name":"hole","mesh":0},{"translation":[0.125,2.0625,0.0625],"name":"ground","mesh":1},{"name":"hole","children":[0,1]}],"bufferViews":[{"buffer":0,"byteOffset":0,"byteLength":1200,"target":34962,"byteStride":12},{"buffer":0,"byteOffset":1200,"byteLength":1200,"target":34962,"byteStride":12},{"buffer":0,"byteOffset":2400,"byteLength":800,"target":34962,"byteStride":8},{"buffer":0,"byteOffset":3200,"byteLength":300,"target":34963},{"buffer":0,"byteOffset":3500,"byteLength":10080,"target":34962,"byteStride":12},{"buffer":0,"byteOffset":13580,"byteLength":10080,"target":34962,"byteStride":12},{"buffer":0,"byteOffset":23660,"byteLength":6720,"target":34962,"byteStride":8},{"buffer":0,"byteOffset":30380,"byteLength":2520,"target":34963}],"buffers":[{"byteLength":32900,"uri":"data:application/octet-stream;base64,"}],"accessors":[{"bufferView":0,"componentType":5126,"count":100,"max":[0.8125,1.375,1.5],"min":[-0.8125,-0.625,-1.5],"type":"VEC3"},{"bufferView":1,"componentType":5126,"count":100,"max":[1,1,1],"min":[-1,-1,-1],"type":"VEC3"},{"bufferView":2,"componentType":5126,"count":100,"max":[0.484375,0.5078125],"min":[0,0],"type":"VEC2"},{"bufferView":3,"componentType":5123,"count":150,"max":[99],"min":[0],"type":"SCALAR"},{"bufferView":4,"componentType":5126,"count":840,"max":[1.479164719581604,0,2.3541653156280518],"min":[-1.8958319425582886,0,-2.395832061767578],"type":"VEC3"},{"bufferView":5,"componentType":5126,"count":840,"max":[0,1,0],"min":[0,1,0],"type":"VEC3"},{"bufferView":6,"componentType":5126,"count":840,"max":[0.42187461256980896,0.5937492251396179],"min":[3.906249901319825e-7,0],"type":"VEC2"},{"bufferView":7,"componentType":5123,"count":1260,"max":[839],"min":[0],"type":"SCALAR"}],"materials":[{"pbrMetallicRoughness":{"metallicFactor":0,"roughnessFactor":1,"baseColorTexture":{"index":0}},"alphaMode":"MASK","alphaCutoff":0.05,"doubleSided":true},{"pbrMetallicRoughness":{"metallicFactor":0,"roughnessFactor":1,"baseColorTexture":{"index":1}},"alphaMode":"MASK","alphaCutoff":0.05,"doubleSided":true}],"textures":[{"sampler":0,"source":0,"name":"Hole"},{"sampler":1,"source":1,"name":"ground"}],"samplers":[{"magFilter":9728,"minFilter":9728,"wrapS":33071,"wrapT":33071},{"magFilter":9728,"minFilter":9728,"wrapS":33071,"wrapT":33071}],"images":[{"mimeType":"image/png","uri":"data:image/png;base64,"},{"mimeType":"image/png","uri":"data:image/png;base64,"}],"meshes":[{"primitives":[{"mode":4,"attributes":{"POSITION":0,"NORMAL":1,"TEXCOORD_0":2},"indices":3,"material":0}]},{"primitives":[{"mode":4,"attributes":{"POSITION":4,"NORMAL":5,"TEXCOORD_0":6},"indices":7,"material":1}]}]}