{"asset":{"version":"2.0","generator":"Blockbench 5.1.4 glTF exporter"},"scenes":[{"nodes":[1,3,5],"name":"blockbench_export"}],"scene":0,"nodes":[{"translation":[0.25,0.6875,0],"name":"hole","mesh":0},{"name":"hole","children":[0]},{"translation":[0,2.0625,0],"name":"plane","mesh":1},{"name":"cover","children":[2]},{"rotation":[0.7071067811865475,0,0,0.7071067811865476],"translation":[1.18768625,2.32725625,-0.308588125],"name":"cylinder","mesh":2},{"name":"group","children":[4]}],"bufferViews":[{"buffer":0,"byteOffset":0,"byteLength":1728,"target":34962,"byteStride":12},{"buffer":0,"byteOffset":1728,"byteLength":1728,"target":34962,"byteStride":12},{"buffer":0,"byteOffset":3456,"byteLength":1152,"target":34962,"byteStride":8},{"buffer":0,"byteOffset":4608,"byteLength":432,"target":34963},{"buffer":0,"byteOffset":5040,"byteLength":192,"target":34962,"byteStride":12},{"buffer":0,"byteOffset":5232,"byteLength":192,"target":34962,"byteStride":12},{"buffer":0,"byteOffset":5424,"byteLength":128,"target":34962,"byteStride":8},{"buffer":0,"byteOffset":5552,"byteLength":48,"target":34963},{"buffer":0,"byteOffset":5600,"byteLength":8304,"target":34962,"byteStride":12},{"buffer":0,"byteOffset":13904,"byteLength":8304,"target":34962,"byteStride":12},{"buffer":0,"byteOffset":22208,"byteLength":5536,"target":34962,"byteStride":8},{"buffer":0,"byteOffset":27744,"byteLength":2016,"target":34963},{"buffer":0,"byteOffset":29760,"byteLength":8},{"buffer":0,"byteOffset":29768,"byteLength":24}],"buffers":[{"byteLength":29792,"uri":"data:application/octet-stream;base64,"}],"accessors":[{"bufferView":0,"componentType":5126,"count":144,"max":[0.8125,1.375,1.5],"min":[-0.8125,-0.625,-1.5],"type":"VEC3"},{"bufferView":1,"componentType":5126,"count":144,"max":[1,0.800000011920929,1],"min":[-1,-1,-1],"type":"VEC3"},{"bufferView":2,"componentType":5126,"count":144,"max":[1.0078125,0.71875],"min":[0,0],"type":"VEC2"},{"bufferView":3,"componentType":5123,"count":216,"max":[143],"min":[0],"type":"SCALAR"},{"bufferView":4,"componentType":5126,"count":16,"max":[2.9375,0,3.625],"min":[-2.75,0,-3.3125],"type":"VEC3"},{"bufferView":5,"componentType":5126,"count":16,"max":[0,1,0],"min":[0,1,0],"type":"VEC3"},{"bufferView":6,"componentType":5126,"count":16,"max":[0.453125,0.578125],"min":[0,0],"type":"VEC2"},{"bufferView":7,"componentType":5123,"count":24,"max":[15],"min":[0],"type":"SCALAR"},{"bufferView":8,"componentType":5126,"count":692,"max":[0.3748137354850769,1.5460880994796753,0.13526874780654907],"min":[-0.3751862645149231,-0.9289118647575378,-0.2117912471294403],"type":"VEC3"},{"bufferView":9,"componentType":5126,"count":692,"max":[1,1,1],"min":[-1,-1,-0.99989253282547],"type":"VEC3"},{"bufferView":10,"componentType":5126,"count":692,"max":[0.0647047683596611,0.3125],"min":[0,0],"type":"VEC2"},{"bufferView":11,"componentType":5123,"count":1008,"max":[691],"min":[0],"type":"SCALAR"},{"bufferView":12,"componentType":5126,"count":2,"max":[1.0416666269302368],"min":[0.5],"type":"SCALAR"},{"bufferView":13,"componentType":5126,"count":2,"max":[0,0,0],"min":[-1.125,0,0],"type":"VEC3"}],"materials":[{"pbrMetallicRoughness":{"metallicFactor":0,"roughnessFactor":1},"alphaMode":"MASK","alphaCutoff":0.05,"doubleSided":true},{"pbrMetallicRoughness":{"metallicFactor":0,"roughnessFactor":1},"alphaMode":"MASK","alphaCutoff":0.05,"doubleSided":true},{"pbrMetallicRoughness":{"metallicFactor":0,"roughnessFactor":1},"alphaMode":"MASK","alphaCutoff":0.05,"doubleSided":true}],"meshes":[{"primitives":[{"mode":4,"attributes":{"POSITION":0,"NORMAL":1,"TEXCOORD_0":2},"indices":3,"material":0}]},{"primitives":[{"mode":4,"attributes":{"POSITION":4,"NORMAL":5,"TEXCOORD_0":6},"indices":7,"material":1}]},{"primitives":[{"mode":4,"attributes":{"POSITION":8,"NORMAL":9,"TEXCOORD_0":10},"indices":11,"material":2}]}],"animations":[{"name":"pocong","samplers":[{"input":12,"output":13,"interpolation":"LINEAR"}],"channels":[{"sampler":0,"target":{"node":5,"path":"translation"}}]}]}